<svg width="50" height="50" viewBox="0 0 50 50" fill="none" xmlns="http://www.w3.org/2000/svg">
<path d="M38.4143 39.4778C37.9504 41.913 35.8214 43.6748 33.3425 43.6748H16.6251C14.1461 43.6748 12.0171 41.913 11.5532 39.4778L7.78271 19.6827L24.8439 7.06602L42.1856 19.6783L38.4143 39.4778Z" fill="#FFC800"/>
<path opacity="0.5" fill-rule="evenodd" clip-rule="evenodd" d="M20.5562 36.1111C20.5562 35.1906 21.3022 34.4444 22.2227 34.4444H28.8894C29.8099 34.4444 30.5562 35.1906 30.5562 36.1111C30.5562 37.0316 29.8099 37.7778 28.8894 37.7778H22.2227C21.3022 37.7778 20.5562 37.0316 20.5562 36.1111Z" fill="#945151"/>
<path d="M30.435 25.4684C30.435 28.47 28.0017 30.9031 25.0001 30.9031C21.9986 30.9031 19.5654 28.47 19.5654 25.4684C19.5654 22.4669 21.9986 20.0336 25.0001 20.0336C28.0017 20.0336 30.435 22.4669 30.435 25.4684Z" fill="#945151"/>
<path d="M25.2635 4.44472C26.0051 4.44111 26.7554 4.66545 27.4004 5.13372L46.7901 19.1123C48.4035 20.2847 48.7611 22.543 47.589 24.1564C46.4169 25.7694 44.1596 26.1273 42.5461 24.9561L25.2505 12.4873L7.95659 24.955L7.95523 24.9561C6.34185 26.127 4.08451 25.7692 2.91257 24.1561C1.74032 22.5427 2.09799 20.2844 3.71146 19.1122L3.71395 19.1103L23.1001 5.13431C23.7526 4.66064 24.5138 4.43576 25.2635 4.44472Z" fill="#FF4B4B"/>
</svg>
