<svg width="82" height="66" viewBox="0 0 82 66" fill="none" xmlns="http://www.w3.org/2000/svg">
<path fill-rule="evenodd" clip-rule="evenodd" d="M63.437 4H18.563C13.6282 4 11.8668 4.58451 10.0703 5.54532C8.11953 6.58859 6.58859 8.11953 5.54532 10.0703C4.58451 11.8668 4 13.6282 4 18.563V47.437C4 52.3718 4.58451 54.1332 5.54532 55.9297C6.58859 57.8805 8.11953 59.4114 10.0703 60.4547C11.8668 61.4155 13.6282 62 18.563 62H63.437C68.3718 62 70.1332 61.4155 71.9297 60.4547C73.8805 59.4114 75.4114 57.8805 76.4547 55.9297C77.4155 54.1332 78 52.3718 78 47.437V18.563C78 13.6282 77.4155 11.8668 76.4547 10.0703C75.4114 8.11953 73.8805 6.58859 71.9297 5.54532C70.1332 4.58451 68.3718 4 63.437 4Z" fill="#EEEEEE" stroke="white" stroke-width="4"/>
<path fill-rule="evenodd" clip-rule="evenodd" d="M18.563 6H63.437C67.8054 6 69.3895 6.45485 70.9865 7.30895C72.5836 8.16306 73.8369 9.41642 74.691 11.0135C74.8631 11.3352 75.019 11.6564 75.1582 12H6.8418C6.981 11.6564 7.13687 11.3352 7.30895 11.0135C8.16305 9.41642 9.41641 8.16306 11.0135 7.30895C12.6105 6.45485 14.1946 6 18.563 6Z" fill="#FF4B4B"/>
<path fill-rule="evenodd" clip-rule="evenodd" d="M75.9973 18C75.9991 18.1824 76 18.37 76 18.563V24H6V18.563C6 18.37 6.00089 18.1824 6.00266 18H75.9973Z" fill="#FF4B4B"/>
<path fill-rule="evenodd" clip-rule="evenodd" d="M76 30V36H6L6 30H76Z" fill="#FF4B4B"/>
<path fill-rule="evenodd" clip-rule="evenodd" d="M76 47.437C76 47.63 75.9991 47.8176 75.9973 48H6.00266C6.00089 47.8176 6 47.63 6 47.437V42H76V47.437Z" fill="#FF4B4B"/>
<path fill-rule="evenodd" clip-rule="evenodd" d="M75.1582 54C75.019 54.3436 74.8631 54.6648 74.691 54.9865C73.8369 56.5836 72.5836 57.8369 70.9865 58.6911C69.3895 59.5452 67.8054 60 63.437 60H18.563C14.1946 60 12.6105 59.5452 11.0135 58.6911C9.41641 57.8369 8.16305 56.5836 7.30895 54.9865C7.13687 54.6648 6.981 54.3436 6.8418 54H75.1582Z" fill="#FF4B4B"/>
<path fill-rule="evenodd" clip-rule="evenodd" d="M18.563 6H41V30H6V18.563C6 14.1946 6.45485 12.6105 7.30895 11.0135C8.16306 9.41642 9.41642 8.16306 11.0135 7.30895C12.6105 6.45485 14.1946 6 18.563 6Z" fill="#1CB0F6"/>
<path d="M33.806 15.602L32.5305 16.2726C32.1299 16.4832 31.6345 16.3292 31.424 15.9286C31.3401 15.7691 31.3112 15.5865 31.3416 15.4089L31.5853 13.9885C31.6084 13.8533 31.5636 13.7154 31.4654 13.6197L30.4335 12.6138C30.1094 12.2979 30.1028 11.7792 30.4187 11.4551C30.5444 11.3261 30.7092 11.2421 30.8876 11.2162L32.3137 11.009C32.4494 10.9893 32.5667 10.904 32.6274 10.7811L33.2652 9.48877C33.4655 9.08299 33.9568 8.91639 34.3625 9.11665C34.5241 9.1964 34.6549 9.32719 34.7347 9.48877L35.3724 10.7811C35.4331 10.904 35.5505 10.9893 35.6862 11.009L37.1123 11.2162C37.5601 11.2813 37.8704 11.6971 37.8053 12.1449C37.7794 12.3232 37.6954 12.488 37.5664 12.6138L36.5344 13.6197C36.4362 13.7154 36.3914 13.8533 36.4146 13.9885L36.6582 15.4089C36.7347 15.8549 36.4352 16.2784 35.9892 16.3549C35.8116 16.3854 35.6289 16.3564 35.4694 16.2726L34.1938 15.602C34.0724 15.5382 33.9274 15.5382 33.806 15.602Z" fill="white"/>
<path d="M33.806 25.602L32.5305 26.2726C32.1299 26.4832 31.6345 26.3292 31.424 25.9286C31.3401 25.7691 31.3112 25.5865 31.3416 25.4089L31.5853 23.9885C31.6084 23.8533 31.5636 23.7154 31.4654 23.6197L30.4335 22.6138C30.1094 22.2979 30.1028 21.7792 30.4187 21.4551C30.5444 21.3261 30.7092 21.2421 30.8876 21.2162L32.3137 21.009C32.4494 20.9893 32.5667 20.904 32.6274 20.7811L33.2652 19.4888C33.4655 19.083 33.9568 18.9164 34.3625 19.1167C34.5241 19.1964 34.6549 19.3272 34.7347 19.4888L35.3724 20.7811C35.4331 20.904 35.5505 20.9893 35.6862 21.009L37.1123 21.2162C37.5601 21.2813 37.8704 21.6971 37.8053 22.1449C37.7794 22.3232 37.6954 22.488 37.5664 22.6138L36.5344 23.6197C36.4362 23.7154 36.3914 23.8533 36.4146 23.9885L36.6582 25.4089C36.7347 25.8549 36.4352 26.2784 35.9892 26.3549C35.8116 26.3854 35.6289 26.3564 35.4694 26.2726L34.1938 25.602C34.0724 25.5382 33.9274 25.5382 33.806 25.602Z" fill="white"/>
<path d="M23.806 15.602L22.5305 16.2726C22.1299 16.4832 21.6345 16.3292 21.424 15.9286C21.3401 15.7691 21.3112 15.5865 21.3416 15.4089L21.5853 13.9885C21.6084 13.8533 21.5636 13.7154 21.4654 13.6197L20.4335 12.6138C20.1094 12.2979 20.1028 11.7792 20.4187 11.4551C20.5444 11.3261 20.7092 11.2421 20.8876 11.2162L22.3137 11.009C22.4494 10.9893 22.5667 10.904 22.6274 10.7811L23.2652 9.48877C23.4655 9.08299 23.9568 8.91639 24.3625 9.11665C24.5241 9.1964 24.6549 9.32719 24.7347 9.48877L25.3724 10.7811C25.4331 10.904 25.5505 10.9893 25.6862 11.009L27.1123 11.2162C27.5601 11.2813 27.8704 11.6971 27.8053 12.1449C27.7794 12.3232 27.6954 12.488 27.5664 12.6138L26.5344 13.6197C26.4362 13.7154 26.3914 13.8533 26.4146 13.9885L26.6582 15.4089C26.7347 15.8549 26.4352 16.2784 25.9892 16.3549C25.8116 16.3854 25.6289 16.3564 25.4694 16.2726L24.1938 15.602C24.0724 15.5382 23.9274 15.5382 23.806 15.602Z" fill="white"/>
<path d="M23.806 25.602L22.5305 26.2726C22.1299 26.4832 21.6345 26.3292 21.424 25.9286C21.3401 25.7691 21.3112 25.5865 21.3416 25.4089L21.5853 23.9885C21.6084 23.8533 21.5636 23.7154 21.4654 23.6197L20.4335 22.6138C20.1094 22.2979 20.1028 21.7792 20.4187 21.4551C20.5444 21.3261 20.7092 21.2421 20.8876 21.2162L22.3137 21.009C22.4494 20.9893 22.5667 20.904 22.6274 20.7811L23.2652 19.4888C23.4655 19.083 23.9568 18.9164 24.3625 19.1167C24.5241 19.1964 24.6549 19.3272 24.7347 19.4888L25.3724 20.7811C25.4331 20.904 25.5505 20.9893 25.6862 21.009L27.1123 21.2162C27.5601 21.2813 27.8704 21.6971 27.8053 22.1449C27.7794 22.3232 27.6954 22.488 27.5664 22.6138L26.5344 23.6197C26.4362 23.7154 26.3914 23.8533 26.4146 23.9885L26.6582 25.4089C26.7347 25.8549 26.4352 26.2784 25.9892 26.3549C25.8116 26.3854 25.6289 26.3564 25.4694 26.2726L24.1938 25.602C24.0724 25.5382 23.9274 25.5382 23.806 25.602Z" fill="white"/>
<path d="M13.806 15.602L12.5305 16.2726C12.1299 16.4832 11.6345 16.3292 11.424 15.9286C11.3401 15.7691 11.3112 15.5865 11.3416 15.4089L11.5853 13.9885C11.6084 13.8533 11.5636 13.7154 11.4654 13.6197L10.4335 12.6138C10.1094 12.2979 10.1028 11.7792 10.4187 11.4551C10.5444 11.3261 10.7092 11.2421 10.8876 11.2162L12.3137 11.009C12.4494 10.9893 12.5667 10.904 12.6274 10.7811L13.2652 9.48877C13.4655 9.08299 13.9568 8.91639 14.3625 9.11665C14.5241 9.1964 14.6549 9.32719 14.7347 9.48877L15.3724 10.7811C15.4331 10.904 15.5505 10.9893 15.6862 11.009L17.1123 11.2162C17.5601 11.2813 17.8704 11.6971 17.8053 12.1449C17.7794 12.3232 17.6954 12.488 17.5664 12.6138L16.5344 13.6197C16.4362 13.7154 16.3914 13.8533 16.4146 13.9885L16.6582 15.4089C16.7347 15.8549 16.4352 16.2784 15.9892 16.3549C15.8116 16.3854 15.6289 16.3564 15.4694 16.2726L14.1938 15.602C14.0724 15.5382 13.9274 15.5382 13.806 15.602Z" fill="white"/>
<path d="M13.806 25.602L12.5305 26.2726C12.1299 26.4832 11.6345 26.3292 11.424 25.9286C11.3401 25.7691 11.3112 25.5865 11.3416 25.4089L11.5853 23.9885C11.6084 23.8533 11.5636 23.7154 11.4654 23.6197L10.4335 22.6138C10.1094 22.2979 10.1028 21.7792 10.4187 21.4551C10.5444 21.3261 10.7092 21.2421 10.8876 21.2162L12.3137 21.009C12.4494 20.9893 12.5667 20.904 12.6274 20.7811L13.2652 19.4888C13.4655 19.083 13.9568 18.9164 14.3625 19.1167C14.5241 19.1964 14.6549 19.3272 14.7347 19.4888L15.3724 20.7811C15.4331 20.904 15.5505 20.9893 15.6862 21.009L17.1123 21.2162C17.5601 21.2813 17.8704 21.6971 17.8053 22.1449C17.7794 22.3232 17.6954 22.488 17.5664 22.6138L16.5344 23.6197C16.4362 23.7154 16.3914 23.8533 16.4146 23.9885L16.6582 25.4089C16.7347 25.8549 16.4352 26.2784 15.9892 26.3549C15.8116 26.3854 15.6289 26.3564 15.4694 26.2726L14.1938 25.602C14.0724 25.5382 13.9274 25.5382 13.806 25.602Z" fill="white"/>
</svg>
