<svg width="50" height="50" viewBox="0 0 50 50" fill="none" xmlns="http://www.w3.org/2000/svg">
<path d="M43.4785 39.1304V18.4783H6.52197V39.1304C6.52197 41.5316 8.41294 43.4783 10.7456 43.4783H39.2549C41.5875 43.4783 43.4785 41.5316 43.4785 39.1304Z" fill="#A56644"/>
<path d="M4.34766 10.8696C4.34766 8.46832 6.29424 6.52174 8.69548 6.52174H18.4781V18.4783H4.34766V10.8696Z" fill="#EA2B2B"/>
<path d="M4.34766 18.4783H18.4781V19.0217C18.4781 22.9238 15.3149 26.087 11.4129 26.087C7.51086 26.087 4.34766 22.9238 4.34766 19.0217V18.4783Z" fill="#FF4945"/>
<path d="M18.478 18.4783H31.5215V19.0217C31.5215 22.9238 28.6016 26.087 24.9998 26.087C21.3979 26.087 18.478 22.9238 18.478 19.0217V18.4783Z" fill="white"/>
<path d="M31.522 18.4783H45.6524V19.0217C45.6524 22.9238 42.4893 26.087 38.5872 26.087C34.6851 26.087 31.522 22.9238 31.522 19.0217V18.4783Z" fill="#FF4945"/>
<path d="M18.478 6.52174H31.5215V18.4783H18.478V6.52174Z" fill="#D0D0D0"/>
<path d="M31.522 6.52174H41.3046C43.7058 6.52174 45.6524 8.46832 45.6524 10.8696V18.4783H31.522V6.52174Z" fill="#EA2B2B"/>
<path d="M11.9565 32.6087C11.9565 31.408 12.9298 30.4348 14.1305 30.4348H19.5652C20.7659 30.4348 21.7392 31.408 21.7392 32.6087V43.4783H11.9565V32.6087Z" fill="#B9E8FF"/>
<path d="M26.0869 32.6087C26.0869 31.408 27.0602 30.4348 28.2608 30.4348H36.9565C38.1571 30.4348 39.1304 31.408 39.1304 32.6087V36.9565C39.1304 38.1572 38.1571 39.1304 36.9565 39.1304H28.2608C27.0602 39.1304 26.0869 38.1572 26.0869 36.9565V32.6087Z" fill="#B9E8FF"/>
</svg>
