<svg width="50" height="50" viewBox="0 0 50 50" fill="none" xmlns="http://www.w3.org/2000/svg">
<path d="M38.0773 8.35614H11.9224V39.2664H38.0773V8.35614Z" fill="#AA572A"/>
<path fill-rule="evenodd" clip-rule="evenodd" d="M3.60059 6.57269C3.60059 5.58781 4.39899 4.78941 5.38388 4.78941H10.1393C11.1242 4.78941 11.9226 5.58781 11.9226 6.57269V21.4334H38.0774V6.57269C38.0774 5.58781 38.8759 4.78941 39.8607 4.78941H44.6162C45.601 4.78941 46.3995 5.58781 46.3995 6.57269V43.4273C46.3995 44.4122 45.601 45.2106 44.6162 45.2106H5.38388C4.39899 45.2106 3.60059 44.4122 3.60059 43.4273V6.57269ZM11.9226 39.2662H38.0774V28.5666H11.9226V39.2662Z" fill="#FFC800"/>
<path d="M46.3996 33.2375L33.5287 45.2105H6.1709L12.561 39.2661H38.0776V28.5664H24.0632L31.7313 21.4333H38.0776V15.5298L46.3996 7.78838V33.2375Z" fill="#FBE56D"/>
<path d="M11.9226 21.3392L3.60059 29.0806V15.2314L11.9226 7.48997V21.3392Z" fill="#FBE56D"/>
<path d="M20.5369 16.4094H29.8825C31.3573 16.4094 32.5528 17.6455 32.5528 19.1705V30.2155C32.5528 31.7403 31.3573 32.9766 29.8825 32.9766H20.5369C19.0622 32.9766 17.8667 31.7403 17.8667 30.2155V19.1705C17.8667 17.6455 19.0622 16.4094 20.5369 16.4094Z" fill="#FFC800"/>
<path d="M28.4655 22.6217C28.4655 20.7155 26.9711 19.1702 25.1277 19.1702C23.2843 19.1702 21.79 20.7155 21.79 22.6217C21.79 23.7477 22.3113 24.7477 23.118 25.3777L22.2721 28.4573C22.2383 28.58 22.2213 28.707 22.2213 28.8345C22.2213 29.597 22.8189 30.2152 23.5564 30.2152H26.6975C26.821 30.2152 26.9436 30.1975 27.0624 30.1627C27.7716 29.9544 28.1833 29.1908 27.9819 28.4573L27.1361 25.3786C27.9436 24.7488 28.4655 23.7483 28.4655 22.6217Z" fill="#CD7900"/>
</svg>
