<svg width="50" height="50" viewBox="0 0 50 50" fill="none" xmlns="http://www.w3.org/2000/svg">
<path fill-rule="evenodd" clip-rule="evenodd" d="M25.1986 5.4369C15.5937 5.4369 7.80734 13.2233 7.80734 22.8283V23.8451C4.58621 25.4459 2.37256 28.7698 2.37256 32.6109C2.37256 38.0136 6.75238 42.3935 12.1551 42.3935H38.2421C43.6449 42.3935 48.0247 38.0136 48.0247 32.6109C48.0247 28.7698 45.8111 25.4459 42.5899 23.8451V22.8283C42.5899 13.2233 34.8036 5.4369 25.1986 5.4369Z" fill="#9069CD"/>
<path d="M12.1548 22.8283C12.1548 15.6245 17.9946 9.78473 25.1983 9.78473C32.402 9.78473 38.2417 15.6245 38.2417 22.8283V31.5239C38.2417 38.7276 32.402 44.5674 25.1983 44.5674C17.9946 44.5674 12.1548 38.7276 12.1548 31.5239V22.8283Z" fill="#F3AD6D"/>
<path d="M7.80713 26.6326C7.80713 23.9312 9.99704 21.7413 12.6984 21.7413H37.6984C40.3998 21.7413 42.5897 23.9312 42.5897 26.6326C42.5897 29.3339 40.3998 31.5239 37.6984 31.5239H12.6984C9.99704 31.5239 7.80713 29.3339 7.80713 26.6326Z" fill="#F3AD6D"/>
<path d="M19.7637 22.2848C19.7637 21.3842 20.4937 20.6544 21.3941 20.6544C22.2945 20.6544 23.0245 21.3842 23.0245 22.2848V26.6326C23.0245 27.533 22.2945 28.263 21.3941 28.263C20.4937 28.263 19.7637 27.533 19.7637 26.6326V22.2848Z" fill="#BF8034"/>
<path d="M26.2856 22.2848C26.2856 21.3842 27.0156 20.6544 27.9161 20.6544C28.8165 20.6544 29.5465 21.3842 29.5465 22.2848V26.6326C29.5465 27.533 28.8165 28.263 27.9161 28.263C27.0156 28.263 26.2856 27.533 26.2856 26.6326V22.2848Z" fill="#BF8034"/>
<path d="M18.6768 31.5701C18.6768 30.9442 19.1841 30.437 19.81 30.437H29.5001C30.126 30.437 30.6333 30.9442 30.6333 31.5701V32.0674C30.6333 35.369 27.9568 38.0457 24.655 38.0457C21.3534 38.0457 18.6768 35.369 18.6768 32.0674V31.5701Z" fill="white"/>
<path d="M7.80713 22.8328V22.8283C7.80713 13.2233 15.5935 5.4369 25.1984 5.4369C28.2824 5.4369 31.179 6.23967 33.6905 7.64761C32.318 16.8478 24.1723 23.9152 14.3288 23.9152C12.0421 23.9152 9.84699 23.5338 7.80713 22.8328Z" fill="#9069CD"/>
</svg>
