<svg width="50" height="49" viewBox="0 0 50 49" fill="none" xmlns="http://www.w3.org/2000/svg">
<path d="M24.9999 15.1904C22.0716 15.1904 20.228 14.6367 17.5769 14.0819C14.9258 13.5271 13.8366 13.9839 12.2746 15.1912C12.2746 15.1912 9.09326 17.4091 9.09326 21.8449C9.09326 28.4986 14.3955 31.8255 14.3955 31.8255C20.7582 36.2612 29.2417 36.2612 35.6044 31.8255C35.6044 31.8255 40.9066 28.4986 40.9066 21.8449C40.9066 17.4091 37.7253 15.1912 37.7253 15.1912C35.9168 13.8078 34.731 13.6196 32.4231 14.0815C30.1152 14.5434 27.9283 15.1904 24.9999 15.1904Z" fill="#9E2E2E"/>
<path d="M16.5166 32.6864C17.4894 33.0128 18.4854 33.1759 19.4837 33.1857H30.5583C31.5437 33.1744 32.525 33.0068 33.4837 32.6864C32.8015 30.3091 31.6293 28.2726 30.1177 26.8385C28.606 25.4044 26.8239 24.6382 25.0001 24.6382C23.1764 24.6382 21.3942 25.4044 19.8826 26.8385C18.3709 28.2726 17.1987 30.3091 16.5166 32.6864Z" fill="#E34545"/>
<path d="M25.1417 18.7285C19.9445 18.7285 16.2895 18.2058 14.2666 17.8099C13.3502 17.6306 12.7183 16.8091 12.7183 15.8299V13.228H37.2822V15.8693C37.2822 16.833 36.6702 17.6391 35.7747 17.8203C33.8263 18.2143 30.2964 18.7285 25.1417 18.7285Z" fill="#FFFCFC" stroke="#FFFCFC" stroke-width="0.727178"/>
<path d="M24.8939 31.3366C28.4571 31.3366 31.0488 31.7017 32.6176 32.0151C33.499 32.1912 34.1006 32.9883 34.1006 33.9428V35.772H15.8994V33.901C15.8994 32.9636 16.4812 32.1828 17.3405 32.0062C18.8526 31.6953 21.362 31.3366 24.8939 31.3366Z" fill="#FFFCFC" stroke="#FFFCFC" stroke-width="0.727178"/>
<path d="M13.1602 33.5594C13.1826 33.5744 13.2022 33.5873 13.2186 33.598C20.2941 38.5109 29.7063 38.5109 36.7818 33.598C36.7983 33.5873 36.8178 33.5744 36.8402 33.5594C36.8972 33.5213 36.9729 33.4693 37.0647 33.4034C37.2484 33.2717 37.4976 33.0837 37.7904 32.8387C38.3741 32.3504 39.1429 31.6263 39.9115 30.6616C41.4524 28.7281 43.0278 25.7777 43.0278 21.8449C43.0278 19.085 42.0312 16.9954 41.037 15.6093C40.5426 14.92 40.0458 14.3991 39.6631 14.0434C39.4711 13.8649 39.3056 13.7259 39.1802 13.626C39.1175 13.5761 39.0646 13.5358 39.0233 13.5049C39.009 13.4944 38.9961 13.4849 38.9846 13.4766C37.9503 12.6888 36.9119 12.1022 35.6761 11.855C34.4574 11.6111 33.2593 11.7418 32.009 11.9921C31.4637 12.1012 30.9486 12.2137 30.4487 12.3229C28.6636 12.7127 27.0733 13.06 25.0002 13.06C22.8552 13.06 21.4284 12.7449 19.4817 12.3151C19.025 12.2142 18.5396 12.1071 18.0097 11.9962C16.5309 11.6867 15.2446 11.6047 14.015 11.906C12.794 12.2052 11.8549 12.8299 11.0103 13.4805C11.0003 13.4879 10.9892 13.4961 10.9772 13.5049C10.9358 13.5358 10.8829 13.5761 10.8202 13.626C10.6949 13.7259 10.5294 13.8649 10.3373 14.0434C9.95464 14.3991 9.45781 14.92 8.96339 15.6093C7.96933 16.9954 6.97266 19.085 6.97266 21.8449C6.97266 25.7777 8.54811 28.7281 10.0889 30.6616C10.8576 31.6263 11.6264 32.3504 12.21 32.8387C12.5029 33.0837 12.752 33.2717 12.9357 33.4034C13.0276 33.4693 13.1034 33.5213 13.1602 33.5594Z" stroke="#DF9178" stroke-width="3.47826"/>
</svg>
