<svg width="212" height="212" viewBox="0 0 212 212" fill="none" xmlns="http://www.w3.org/2000/svg">
<path fill-rule="evenodd" clip-rule="evenodd" d="M64.7866 24.0247L128.741 40.0079C130.21 40.3751 131.241 41.6951 131.241 43.2095V64.8837C131.241 66.7063 129.763 68.1837 127.941 68.1837H63.9865C62.164 68.1837 60.6865 66.7063 60.6865 64.8837V27.2263C60.6865 25.4037 62.164 23.9263 63.9865 23.9263C64.2562 23.9263 64.525 23.9593 64.7866 24.0247Z" fill="#423E3E"/>
<path fill-rule="evenodd" clip-rule="evenodd" d="M130.119 50.551L170.947 50.551C175.807 50.551 179.747 54.4909 179.747 59.351V65.9959C179.747 70.856 175.807 74.7959 170.947 74.7959L130.119 74.7959C125.259 74.7959 121.319 70.856 121.319 65.9959V59.351C121.319 54.4909 125.259 50.551 130.119 50.551Z" fill="#4B4B4B"/>
<path d="M116.377 73.694H76.6531C45.9167 73.694 21 98.6107 21 129.347C21 160.083 45.9167 185 76.6531 185H116.377C147.113 185 172.03 160.083 172.03 129.347C172.03 98.6107 147.113 73.694 116.377 73.694Z" fill="#BBF2FF"/>
<path fill-rule="evenodd" clip-rule="evenodd" d="M161.006 129.814V129.982C161.006 154.89 140.814 175.082 115.906 175.082H76.0219C51.1138 175.082 30.9219 154.89 30.9219 129.982V129.814C30.9219 124.837 31.7281 120.048 33.2171 115.571H158.711C160.2 120.048 161.006 124.837 161.006 129.814Z" fill="#743D00"/>
<path fill-rule="evenodd" clip-rule="evenodd" d="M199.491 99.6217L180.169 56.2252C178.192 51.7852 172.991 49.7885 168.551 51.7652L168.521 51.7785C164.081 53.7553 162.084 58.9571 164.061 63.397L183.382 106.794C185.359 111.233 190.561 113.23 195.001 111.253L195.031 111.24C199.471 109.263 201.467 104.062 199.491 99.6217Z" fill="#4B4B4B"/>
<path d="M143.379 50.551H49.6504C46.6128 50.551 44.1504 53.0135 44.1504 56.051V75.9082C44.1504 78.9457 46.6128 81.4082 49.6504 81.4082H143.379C146.417 81.4082 148.879 78.9457 148.879 75.9082V56.051C148.879 53.0135 146.417 50.551 143.379 50.551Z" fill="#4B4B4B"/>
<path d="M73.9253 55H62.8819C60.4519 55 58.4819 56.9699 58.4819 59.4V72.6C58.4819 75.0301 60.4519 77 62.8819 77H73.9253C76.3554 77 78.3253 75.0301 78.3253 72.6V59.4C78.3253 56.9699 76.3554 55 73.9253 55Z" fill="#777777"/>
<path d="M87.6969 100.143H68.9533C66.8231 100.143 65.0962 101.87 65.0962 104C65.0962 106.13 66.8231 107.857 68.9533 107.857H87.6969C89.8271 107.857 91.554 106.13 91.554 104C91.554 101.87 89.8271 100.143 87.6969 100.143Z" fill="#93D0DE"/>
<path d="M87.6969 124.388H68.9533C66.8231 124.388 65.0962 126.115 65.0962 128.245C65.0962 130.375 66.8231 132.102 68.9533 132.102H87.6969C89.8271 132.102 91.554 130.375 91.554 128.245C91.554 126.115 89.8271 124.388 87.6969 124.388Z" fill="#502A00"/>
<path d="M87.6969 147.531H68.9533C66.8231 147.531 65.0962 149.258 65.0962 151.388C65.0962 153.518 66.8231 155.245 68.9533 155.245H87.6969C89.8271 155.245 91.554 153.518 91.554 151.388C91.554 149.258 89.8271 147.531 87.6969 147.531Z" fill="#502A00"/>
</svg>
