<svg width="212" height="212" viewBox="0 0 212 212" fill="none" xmlns="http://www.w3.org/2000/svg">
<path fill-rule="evenodd" clip-rule="evenodd" d="M168.012 64.5896C174.613 64.5896 179.965 69.9412 179.965 76.5428C179.965 78.1555 179.638 79.7514 179.006 81.2346L168.615 105.581C166.589 110.33 161.925 113.41 156.762 113.41C152.218 113.41 148.535 109.727 148.535 105.184C148.535 105.09 148.537 104.997 148.54 104.903L149.298 82.6765C149.641 72.5892 157.918 64.5896 168.012 64.5896Z" stroke="#FFC800" stroke-width="9"/>
<path fill-rule="evenodd" clip-rule="evenodd" d="M40 52H164C157.966 53.3164 154.966 63.6497 155 83C154.987 90.4149 154.129 98.0566 152.428 105.925C147.497 128.727 127.329 145 104 145C80.678 145 60.4138 128.971 55.0435 106.276C53.1459 98.2568 52.1314 90.4982 52 83C52.333 63.8081 48.333 53.4747 40 52Z" fill="#D2E4E8"/>
<path d="M125.956 77.1205H108.156C104.401 77.1205 101.356 80.1649 101.356 83.9205V104.357C101.356 108.112 104.401 111.157 108.156 111.157H125.956C129.712 111.157 132.756 108.112 132.756 104.357V83.9205C132.756 80.1649 129.712 77.1205 125.956 77.1205Z" fill="white"/>
<path d="M162 46H42C39.2386 46 37 48.2386 37 51C37 53.7614 39.2386 56 42 56H162C164.761 56 167 53.7614 167 51C167 48.2386 164.761 46 162 46Z" fill="#FFC800"/>
<path d="M117.064 44H117.049C115.922 44 115.009 44.9133 115.009 46.04V88.2492C115.009 89.3758 115.922 90.2892 117.049 90.2892H117.064C118.191 90.2892 119.104 89.3758 119.104 88.2492V46.04C119.104 44.9133 118.191 44 117.064 44Z" fill="white"/>
<path fill-rule="evenodd" clip-rule="evenodd" d="M61.9127 151H144.456C146.064 151 147.369 152.304 147.369 153.913C147.369 154.699 147.051 155.452 146.487 156L142.805 159.583C141.872 160.492 140.621 161 139.318 161H67.0503C65.7477 161 64.4966 160.492 63.5631 159.583L59.8813 156C58.7284 154.878 58.7034 153.034 59.8253 151.881C60.3737 151.318 61.1265 151 61.9127 151Z" fill="#D2E4E8"/>
<path fill-rule="evenodd" clip-rule="evenodd" d="M19 137H188C188 146.389 180.389 154 171 154H36C26.6112 154 19 146.389 19 137Z" fill="#D2E4E8"/>
<path d="M186 133H20C17.2386 133 15 135.239 15 138C15 140.761 17.2386 143 20 143H186C188.761 143 191 140.761 191 138C191 135.239 188.761 133 186 133Z" fill="#FFC800"/>
</svg>
