<svg width="36" height="36" viewBox="0 0 36 36" fill="none" xmlns="http://www.w3.org/2000/svg">
<path d="M3.5 14.9911C3.5 17.6891 4.86751 20.0748 6.96175 21.5216L15.8933 29.3143C16.9544 30.2401 18.5397 30.2277 19.5862 29.2856L28.5687 21.1987C30.4148 19.7337 31.5946 17.4971 31.5946 14.9911C31.5946 10.578 27.9359 7.00049 23.4226 7.00049C21.1163 7.00049 19.0332 7.93463 17.5473 9.43705C16.0615 7.93463 13.9783 7.00049 11.6721 7.00049C7.15876 7.00049 3.5 10.578 3.5 14.9911Z" fill="url(#paint0_linear_48_2)"/>
<path fill-rule="evenodd" clip-rule="evenodd" d="M15.9964 19.695C14.5797 21.1116 12.2829 21.1116 10.8662 19.695C9.44956 18.2783 9.44956 15.9815 10.8662 14.5648C12.2829 13.1482 14.5797 13.1482 15.9964 14.5648L18.5614 17.1299L15.9964 19.695ZM12.1159 18.4453C12.8424 19.1718 14.0202 19.1718 14.7467 18.4453L16.0621 17.1299L14.7467 15.8145C14.0202 15.088 12.8424 15.088 12.1159 15.8145C11.3894 16.541 11.3894 17.7188 12.1159 18.4453Z" fill="#FEFEFE"/>
<path fill-rule="evenodd" clip-rule="evenodd" d="M18.7721 19.695C20.1887 21.1116 22.4856 21.1116 23.9022 19.695C25.3189 18.2783 25.3189 15.9815 23.9022 14.5648C22.4856 13.1482 20.1887 13.1482 18.7721 14.5648L16.207 17.1299L18.7721 19.695ZM22.6526 18.4453C21.9261 19.1718 20.7482 19.1718 20.0217 18.4453L18.7063 17.1299L20.0217 15.8145C20.7482 15.088 21.9261 15.088 22.6526 15.8145C23.3791 16.541 23.3791 17.7188 22.6526 18.4453Z" fill="#FEFEFE"/>
<defs>
<linearGradient id="paint0_linear_48_2" x1="12.9744" y1="7.00049" x2="20.334" y2="32.0915" gradientUnits="userSpaceOnUse">
<stop stop-color="#26F663"/>
<stop offset="0.601579" stop-color="#268AFF"/>
<stop offset="0.940172" stop-color="#FC55FF"/>
</linearGradient>
</defs>
</svg>
