<svg width="212" height="212" viewBox="0 0 212 212" fill="none" xmlns="http://www.w3.org/2000/svg">
<path d="M135.148 91.0269H77.3425C71.5944 91.0269 66.9346 95.6866 66.9346 101.435V192.592C66.9346 198.34 71.5944 203 77.3425 203H135.148C140.896 203 145.555 198.34 145.555 192.592V101.435C145.555 95.6866 140.896 91.0269 135.148 91.0269Z" fill="#BBF2FF"/>
<path fill-rule="evenodd" clip-rule="evenodd" d="M103.603 37.6443H110.052C129.959 37.6443 146.779 52.4083 149.36 72.1476L151.757 90.4848C152.782 98.3218 147.259 105.506 139.422 106.53C138.807 106.611 138.187 106.651 137.567 106.651H76.0873C68.1836 106.651 61.7764 100.244 61.7764 92.3401C61.7764 91.7197 61.8167 91.1 61.8971 90.4848L64.2946 72.1476C66.8753 52.4083 83.6952 37.6443 103.603 37.6443Z" fill="#BBF2FF"/>
<path fill-rule="evenodd" clip-rule="evenodd" d="M140.071 74.1007L142.163 90.0917C142.722 94.3664 139.71 98.2848 135.435 98.8437C135.099 98.8876 134.761 98.9096 134.423 98.9096H79.2317C74.9206 98.9096 71.4258 95.4148 71.4258 91.1036C71.4258 90.7653 71.4478 90.4272 71.4917 90.0917L73.5824 74.1007H140.071Z" fill="#47D7FF"/>
<path fill-rule="evenodd" clip-rule="evenodd" d="M87.5566 27.2281H126.223V49.3624H87.5566V27.2281Z" fill="#BBF2FF"/>
<path d="M122.32 9H91.4596C89.3041 9 87.5566 10.7474 87.5566 12.903V25.9292C87.5566 28.0848 89.3041 29.8322 91.4596 29.8322H122.32C124.475 29.8322 126.223 28.0848 126.223 25.9292V12.903C126.223 10.7474 124.475 9 122.32 9Z" fill="#1899D6"/>
<path fill-rule="evenodd" clip-rule="evenodd" d="M81.1605 91.0269H131.329C134.203 91.0269 136.533 93.3567 136.533 96.2308V187.38C136.533 190.254 134.203 192.584 131.329 192.584H81.1605C78.2864 192.584 75.9565 190.254 75.9565 187.38V96.2308C75.9565 93.3567 78.2864 91.0269 81.1605 91.0269Z" fill="#47D7FF"/>
<path fill-rule="evenodd" clip-rule="evenodd" d="M86.3039 24.6241H127.475C129.63 24.6241 131.378 26.3716 131.378 28.5271V28.5333C131.378 30.6888 129.63 32.4362 127.475 32.4362H86.3039C84.1483 32.4362 82.4009 30.6888 82.4009 28.5333V28.5271C82.4009 26.3716 84.1483 24.6241 86.3039 24.6241Z" fill="#BBF2FF"/>
<path d="M116.484 46.7584H97.2953C93.3404 46.7584 90.1343 49.9645 90.1343 53.9195C90.1343 57.8745 93.3404 61.0806 97.2953 61.0806H116.484C120.439 61.0806 123.645 57.8745 123.645 53.9195C123.645 49.9645 120.439 46.7584 116.484 46.7584Z" fill="white"/>
</svg>
